REM DIRINDEX 1\8,1\2\11,1\3\12,1\3\14,1\5\15,1\5\16,1\6\17,1\6\18,1\4\19,1\4\20,1\4\21,1\4\22,1\7\23,1\7\24,1\7\25,1\2\9\26,1\2\9\27,1\2\10\28,1\2\10\29,1\2\10\30,1\2\10\31,1\2\10\32,1\3\13\33,1\3\13\34,1\3\13\35
REM DIRNAME folder01,folder02,folder03,folder04,folder05,folder06,folder07,folder08,folder09,folder10,folder11,folder12,folder13,folder14,folder15,folder16,folder17,folder18,folder19,folder20,folder21,folder22,folder23,folder24,folder25,folder26,folder27,folder28,folder29,folder30,folder31,folder32,folder33,folder34,folder35
TITLE ""
FILE "164 164_例文UNIT7_SET6.mp3" MP3
  TRACK 01 AUDIO
    TITLE "22:cjc123_4521"
    INDEX 01 00:00:00
  TRACK 02 AUDIO
    TITLE "0:"
    INDEX 01 00:02:55
  TRACK 03 AUDIO
    TITLE "19:cjc123_4522"
    INDEX 01 00:03:29
  TRACK 04 AUDIO
    TITLE "0:"
    INDEX 01 00:06:26
  TRACK 05 AUDIO
    TITLE "20:cjc123_4523"
    INDEX 01 00:06:59
  TRACK 06 AUDIO
    TITLE "0:"
    INDEX 01 00:09:22
  TRACK 07 AUDIO
    TITLE "21:cjc123_4524"
    INDEX 01 00:09:57
  TRACK 08 AUDIO
    TITLE "0:"
    INDEX 01 00:12:54
  TRACK 09 AUDIO
    TITLE "19:cjc123_4525"
    INDEX 01 00:13:30
  TRACK 10 AUDIO
    TITLE "0:"
    INDEX 01 00:18:64
  TRACK 11 AUDIO
    TITLE "20:cjc123_4526"
    INDEX 01 00:19:16
  TRACK 12 AUDIO
    TITLE "0:"
    INDEX 01 00:23:48
  TRACK 13 AUDIO
    TITLE "21:cjc123_4527"
    INDEX 01 00:24:08
  TRACK 14 AUDIO
    TITLE "0:"
    INDEX 01 00:29:42
  TRACK 15 AUDIO
    TITLE "19:cjc123_4528"
    INDEX 01 00:30:34
  TRACK 16 AUDIO
    TITLE "0:"
    INDEX 01 00:35:37
  TRACK 17 AUDIO
    TITLE "20:cjc123_4529"
    INDEX 01 00:36:01
  TRACK 18 AUDIO
    TITLE "0:"
    INDEX 01 00:41:24
  TRACK 19 AUDIO
    TITLE "21:cjc123_4530"
    INDEX 01 00:41:61
  TRACK 20 AUDIO
    TITLE "0:"
    INDEX 01 00:46:66
  TRACK 21 AUDIO
    TITLE "19:cjc123_4531"
    INDEX 01 00:47:46
  TRACK 22 AUDIO
    TITLE "0:"
    INDEX 01 00:52:59
  TRACK 23 AUDIO
    TITLE "20:cjc123_4532"
    INDEX 01 00:53:17
  TRACK 24 AUDIO
    TITLE "0:"
    INDEX 01 00:58:62
  TRACK 25 AUDIO
    TITLE "21:cjc123_4533"
    INDEX 01 00:59:16
  TRACK 26 AUDIO
    TITLE "0:"
    INDEX 01 01:04:27
  TRACK 27 AUDIO
    TITLE "19:cjc123_4534"
    INDEX 01 01:05:05
  TRACK 28 AUDIO
    TITLE "0:"
    INDEX 01 01:10:73
  TRACK 29 AUDIO
    TITLE "20:cjc123_4535"
    INDEX 01 01:11:33
  TRACK 30 AUDIO
    TITLE "0:"
    INDEX 01 01:17:22
  TRACK 31 AUDIO
    TITLE "21:cjc123_4536"
    INDEX 01 01:17:53
  TRACK 32 AUDIO
    TITLE "0:"
    INDEX 01 01:23:46
  TRACK 33 AUDIO
    TITLE "19:cjc123_4537"
    INDEX 01 01:24:30
  TRACK 34 AUDIO
    TITLE "0:"
    INDEX 01 01:29:43
  TRACK 35 AUDIO
    TITLE "20:cjc123_4538"
    INDEX 01 01:30:05
  TRACK 36 AUDIO
    TITLE "0:"
    INDEX 01 01:35:53
  TRACK 37 AUDIO
    TITLE "21:cjc123_4539"
    INDEX 01 01:36:07
  TRACK 38 AUDIO
    TITLE "0:"
    INDEX 01 01:41:20
  TRACK 39 AUDIO
    TITLE "19:cjc123_4540"
    INDEX 01 01:41:65
  TRACK 40 AUDIO
    TITLE "0:"
    INDEX 01 01:46:27
  TRACK 41 AUDIO
    TITLE "20:cjc123_4541"
    INDEX 01 01:46:63
  TRACK 42 AUDIO
    TITLE "0:"
    INDEX 01 01:51:38
  TRACK 43 AUDIO
    TITLE "21:cjc123_4542"
    INDEX 01 01:51:66
  TRACK 44 AUDIO
    TITLE "0:"
    INDEX 01 01:56:26
  TRACK 45 AUDIO
    TITLE "19:cjc123_4543"
    INDEX 01 01:57:04
  TRACK 46 AUDIO
    TITLE "0:"
    INDEX 01 02:02:28
  TRACK 47 AUDIO
    TITLE "20:cjc123_4544"
    INDEX 01 02:02:60
  TRACK 48 AUDIO
    TITLE "0:"
    INDEX 01 02:08:03
  TRACK 49 AUDIO
    TITLE "21:cjc123_4545"
    INDEX 01 02:08:31
  TRACK 50 AUDIO
    TITLE "0:"
    INDEX 01 02:13:56
  TRACK 51 AUDIO
    TITLE "19:cjc123_4546"
    INDEX 01 02:14:31
  TRACK 52 AUDIO
    TITLE "0:"
    INDEX 01 02:22:29
  TRACK 53 AUDIO
    TITLE "20:cjc123_4547"
    INDEX 01 02:22:66
  TRACK 54 AUDIO
    TITLE "0:"
    INDEX 01 02:29:64
  TRACK 55 AUDIO
    TITLE "21:cjc123_4548"
    INDEX 01 02:30:15
  TRACK 56 AUDIO
    TITLE "0:"
    INDEX 01 02:38:14
  TRACK 57 AUDIO
    TITLE "19:cjc123_4549"
    INDEX 01 02:38:63
  TRACK 58 AUDIO
    TITLE "0:"
    INDEX 01 02:44:27
  TRACK 59 AUDIO
    TITLE "20:cjc123_4550"
    INDEX 01 02:44:60
  TRACK 60 AUDIO
    TITLE "0:"
    INDEX 01 02:49:73
  TRACK 61 AUDIO
    TITLE "21:cjc123_4551"
    INDEX 01 02:50:25
  TRACK 62 AUDIO
    TITLE "0:"
    INDEX 01 02:55:64
  TRACK 63 AUDIO
    TITLE "19:cjc123_4552"
    INDEX 01 02:56:36
  TRACK 64 AUDIO
    TITLE "0:"
    INDEX 01 03:02:62
  TRACK 65 AUDIO
    TITLE "20:cjc123_4553"
    INDEX 01 03:03:18
  TRACK 66 AUDIO
    TITLE "0:"
    INDEX 01 03:09:09
  TRACK 67 AUDIO
    TITLE "21:cjc123_4554"
    INDEX 01 03:09:38
  TRACK 68 AUDIO
    TITLE "0:"
    INDEX 01 03:15:66
  TRACK 69 AUDIO
    TITLE "19:cjc123_4555"
    INDEX 01 03:16:40
  TRACK 70 AUDIO
    TITLE "0:"
    INDEX 01 03:21:53
  TRACK 71 AUDIO
    TITLE "20:cjc123_4556"
    INDEX 01 03:22:12
  TRACK 72 AUDIO
    TITLE "0:"
    INDEX 01 03:27:50
  TRACK 73 AUDIO
    TITLE "21:cjc123_4557"
    INDEX 01 03:28:06
  TRACK 74 AUDIO
    TITLE "0:"
    INDEX 01 03:33:19
  TRACK 75 AUDIO
    TITLE "19:cjc123_4558"
    INDEX 01 03:33:68
  TRACK 76 AUDIO
    TITLE "0:"
    INDEX 01 03:38:56
  TRACK 77 AUDIO
    TITLE "20:cjc123_4559"
    INDEX 01 03:39:12
  TRACK 78 AUDIO
    TITLE "0:"
    INDEX 01 03:44:00
  TRACK 79 AUDIO
    TITLE "21:cjc123_4560"
    INDEX 01 03:44:27
  TRACK 80 AUDIO
    TITLE "0:"
    INDEX 01 03:49:16
  TRACK 81 AUDIO
    TITLE "19:cjc123_4561"
    INDEX 01 03:49:63
  TRACK 82 AUDIO
    TITLE "0:"
    INDEX 01 03:54:31
  TRACK 83 AUDIO
    TITLE "20:cjc123_4562"
    INDEX 01 03:54:63
  TRACK 84 AUDIO
    TITLE "0:"
    INDEX 01 03:59:64
  TRACK 85 AUDIO
    TITLE "21:cjc123_4563"
    INDEX 01 04:00:22
  TRACK 86 AUDIO
    TITLE "0:"
    INDEX 01 04:04:63
  TRACK 87 AUDIO
    TITLE "19:cjc123_4564"
    INDEX 01 04:05:37
  TRACK 88 AUDIO
    TITLE "0:"
    INDEX 01 04:11:30
  TRACK 89 AUDIO
    TITLE "20:cjc123_4565"
    INDEX 01 04:11:73
  TRACK 90 AUDIO
    TITLE "0:"
    INDEX 01 04:19:17
  TRACK 91 AUDIO
    TITLE "21:cjc123_4566"
    INDEX 01 04:19:45
  TRACK 92 AUDIO
    TITLE "0:"
    INDEX 01 04:25:38
